<?xml version="1.0" standalone="no"?> <!DOCTYPE svg PUBLIC "-//W3C//DTD SVG 1.0//EN" "http://www.w3.org/TR/2001/REC-SVG-20010904/DTD/svg10.dtd" > <svg xmlns="http://www.w3.org/2000/svg" width="100%" height="100%">
<defs >
<font id="false" horiz-adv-x="554" ><font-face
    font-family="false"
    units-per-em="1000"
    panose-1="2 11 5 3 3 2 2 6 2 3"
    ascent="818"
    descent="-182"
    alphabetic="0" />
<missing-glyph horiz-adv-x="500" />
<glyph unicode=" " glyph-name="space" horiz-adv-x="265" />
<glyph unicode="!" glyph-name="exclam" horiz-adv-x="286" d="M169 -5T143 -5T98 13T79 59T98 104T143 123T188 105T207 59T188 14ZM112 202L98 715H190L176 202H112Z" />
<glyph unicode="&quot;" glyph-name="quotedbl" horiz-adv-x="375" d="M76 470L61 715H151L136 470H76ZM239 470L224 715H314L299 470H239Z" />
<glyph unicode="#" glyph-name="numbersign" horiz-adv-x="503" d="M252 99L278 282H181L155 99H87L113 282H30V352H124L143 484H58V554H153L177 715H245L221 554H318L342 715H410L386 554H473V484H376L357 352H445V282H346L320 99H252ZM211 484L192 352H289L308
484H211Z" />
<glyph unicode="$" glyph-name="dollar" horiz-adv-x="627" d="M285 -135V-8Q67 7 45 218H129Q138 148 170 108T285 60V338Q179 358 127 401T74 530Q74 608 133 662T285 723V813H344V722Q435 714 488 664T552 527H474Q463 585 432 615T344 654V404Q460 383 513
339T567 202Q567 116 504 57T344 -8V-135H285ZM484 196Q484 253 454 282T344 328V60Q405 66 444 103T484 196ZM153 538Q153 487 179 459T285 414V655Q223 650 188 618T153 538Z" />
<glyph unicode="%" glyph-name="percent" horiz-adv-x="784" d="M157 448T198 448T262 475T286 552Q286 600 263 628T198 656Q158 656 134 629T110 551T133 475ZM264 383T198 383T83 431T34 550Q34 623 82 672T198 721Q266 721 314 673T362 552T313 432ZM135 0L572
715H648L211 0H135ZM545 57T586 57T650 84T674 161Q674 209 651 237T586 265Q546 265 522 238T498 160T521 84ZM652 -8T586 -8T471 40T422 159Q422 232 470 281T586 330Q654 330 702 282T750 161T701 41Z" />
<glyph unicode="&amp;" glyph-name="ampersand" horiz-adv-x="686" d="M644 369L527 146L647 0H546L475 86Q395 -7 277 -7Q178 -7 115 47T51 189Q51 267 93 316T215 404Q152 485 152 555Q152 632 203 675T327 719Q394 719 438 678T483 572Q483 453 330 387L480
204L567 369H644ZM280 61Q368 61 432 139L254 356Q195 328 165 292T135 197Q135 133 173 97T280 61ZM232 554Q232 511 294 433Q355 460 380 491T405 574Q405 609 383 631T324 654Q284 654 258 629T232 554Z" />
<glyph unicode="&apos;" glyph-name="quotesingle" horiz-adv-x="212" d="M76 470L61 715H151L136 470H76Z" />
<glyph unicode="(" glyph-name="parenleft" horiz-adv-x="322" d="M219 -148Q53 47 53 312Q53 578 219 773H302Q140 571 140 312Q140 54 302 -148H219Z" />
<glyph unicode=")" glyph-name="parenright" horiz-adv-x="322" d="M20 -145Q182 57 182 316Q182 574 20 776H103Q269 581 269 316Q269 50 103 -145H20Z" />
<glyph unicode="*" glyph-name="asterisk" horiz-adv-x="422" d="M139 409L82 450L165 561L42 590L64 657L182 609L175 743H248L241 609L358 657L380 590L256 561L339 450L283 409L209 529L139 409Z" />
<glyph unicode="+" glyph-name="plus" horiz-adv-x="519" d="M223 105V307H36V377H223V579H296V377H483V307H296V105H223Z" />
<glyph unicode="," glyph-name="comma" horiz-adv-x="282" d="M90 -123L36 -95L132 124L213 86L90 -123Z" />
<glyph unicode="-" glyph-name="hyphen" horiz-adv-x="334" d="M60 236V314H274V236H60Z" />
<glyph unicode="." glyph-name="period" horiz-adv-x="282" d="M167 -5T141 -5T96 13T77 59T96 104T141 123T186 105T205 59T186 14Z" />
<glyph unicode="/" glyph-name="slash" horiz-adv-x="403" d="M6 -148L297 776H373L82 -148H6Z" />
<glyph unicode="0" glyph-name="zero" horiz-adv-x="681" d="M344 63Q437 63 485 133T533 340V380Q533 506 483 580T342 654Q251 654 200 582T149 378V338Q149 205 201 134T344 63ZM344 -9Q216 -9 138 86T60 337V377Q60 536 135 630T342 724Q472 724 546 629T621
379V339Q621 181 548 86T344 -9Z" />
<glyph unicode="1" glyph-name="one" horiz-adv-x="399" d="M193 0V629L33 514V595L199 715H280V0H193Z" />
<glyph unicode="2" glyph-name="two" d="M19 0V20L303 319Q406 428 406 526Q406 586 373 620T278 654Q147 654 127 495H46Q54 601 115 662T278 724Q377 724 435 670T494 523Q494 404 350 263L153 71H498V0H19Z" />
<glyph unicode="3" glyph-name="three" horiz-adv-x="604" d="M290 -9Q179 -9 112 53T40 211H120Q126 143 168 102T292 61Q374 61 414 97T455 199Q455 338 304 338H250V411H300Q434 411 434 533Q434 586 401 619T304 653Q238 653 196 616T146 518H70Q74 605 139
664T304 724Q402 724 460 669T519 535Q519 426 406 379Q471 362 507 317T544 199Q544 103 474 47T290 -9Z" />
<glyph unicode="4" glyph-name="four" horiz-adv-x="617" d="M397 0V150H39V178L366 715H482V221H581V150H482V0H397ZM149 221H397V649L149 221Z" />
<glyph unicode="5" glyph-name="five" horiz-adv-x="587" d="M281 -9Q170 -9 111 46T43 193H126Q138 128 171 95T280 61Q353 61 395 107T437 234Q437 310 396 355T287 401Q179 401 118 332H86V715H488V640H158V422Q211 471 304 471Q402 471 464 407T526 234Q526
124 456 58T281 -9Z" />
<glyph unicode="6" glyph-name="six" horiz-adv-x="619" d="M317 -9Q246 -9 195 16T115 87T73 189T60 316V333Q60 521 136 622T340 724Q425 724 480 680T549 551H466Q454 603 423 628T334 653Q251 653 200 579T146 367Q172 411 220 437T330 464Q435 464 499 397T564
230Q564 122 497 57T317 -9ZM317 59Q388 59 431 105T475 226Q475 303 432 349T316 396Q244 396 198 352T152 238Q152 153 197 106T317 59Z" />
<glyph unicode="7" glyph-name="seven" horiz-adv-x="525" d="M146 0L395 645H32V715H503V703L235 0H146Z" />
<glyph unicode="8" glyph-name="eight" horiz-adv-x="607" d="M304 -9Q243 -9 188 13T95 86T57 203Q57 272 94 319T192 388Q141 408 113 447T84 538Q84 621 150 672T304 724T457 673T523 540Q523 437 413 389Q550 339 550 205Q550 104 477 48T304 -9ZM304 62Q373
62 417 100T461 208Q461 276 417 313T306 350Q238 350 192 312T146 206Q146 139 192 101T304 62ZM307 419Q365 419 400 451T435 539Q435 590 398 623T304 656Q247 656 210 624T172 537T211 451T307 419Z" />
<glyph unicode="9" glyph-name="nine" horiz-adv-x="620" d="M290 -8Q192 -8 133 40T60 176H144Q157 120 191 92T292 63Q379 63 426 134T475 347Q449 303 400 278T290 252Q186 252 121 318T55 486Q55 594 122 659T302 725Q428 725 493 643T559 405V360Q559 183
489 88T290 -8ZM303 320Q375 320 421 363T467 475Q467 561 422 609T302 657Q231 657 188 611T144 490Q144 413 187 367T303 320Z" />
<glyph unicode=":" glyph-name="colon" horiz-adv-x="292" d="M172 -5T146 -5T101 13T82 59T101 104T146 123T191 105T210 59T191 14ZM172 292T146 292T101 310T82 356T101 401T146 420T191 402T210 356T191 311Z" />
<glyph unicode=";" glyph-name="semicolon" horiz-adv-x="292" d="M75 -123L21 -95L117 124L198 86L75 -123ZM181 292T155 292T110 310T91 356T110 401T155 420T200 402T219 356T200 311Z" />
<glyph unicode="&lt;" glyph-name="less" horiz-adv-x="504" d="M437 95L53 312V332L437 549V469L174 322L437 175V95Z" />
<glyph unicode="=" glyph-name="equal" horiz-adv-x="484" d="M40 196V268H444V196H40ZM40 376V448H444V376H40Z" />
<glyph unicode="&gt;" glyph-name="greater" horiz-adv-x="504" d="M67 95V175L330 322L67 469V549L451 332V312L67 95Z" />
<glyph unicode="?" glyph-name="question" horiz-adv-x="489" d="M179 202V252Q179 290 197 326T231 380T282 432Q306 456 319 471T343 509T355 555Q355 601 329 628T248 655Q192 655 156 620T115 525H37Q42 614 100 669T249 724Q344 724 391 676T439 558Q439
524 423 491T390 440T341 391Q312 363 297 347T268 302T253 245V202H179ZM240 -5T214 -5T169 13T150 59T169 104T214 123T259 105T278 59T259 14Z" />
<glyph unicode="@" glyph-name="at" horiz-adv-x="915" d="M459 -147Q362 -147 282 -114T151 -23T73 106T45 260Q45 441 170 564T472 688Q649 688 759 584T870 322Q870 255 852 204T806 124T746 81T682 67Q625 67 600 89T567 153Q544 113 504 87T418 60Q345 60
301 107T257 234Q257 334 314 400T454 466Q547 466 575 398L582 458H665L635 206Q625 127 683 127Q730 127 764 176T798 320Q798 456 711 539T472 622T221 521T122 262Q122 193 143 132T206 23T312 -53T459 -81Q538 -81 592 -62T695 0H772Q733 -66 649 -106T459
-147ZM436 124Q486 124 525 168T564 287Q564 343 537 371T460 400Q411 400 377 356T342 235Q342 184 368 154T436 124Z" />
<glyph unicode="A" glyph-name="A" horiz-adv-x="674" d="M36 0L282 715H396L638 0H552L482 206H187L118 0H36ZM335 643L211 275H459L335 643Z" />
<glyph unicode="B" glyph-name="B" horiz-adv-x="622" d="M90 0V715H305Q535 715 535 530V526Q535 412 427 375Q504 357 537 316T570 204V200Q570 101 508 51T335 0H90ZM175 68H333Q485 68 485 201V205Q485 272 446 303T321 335H175V68ZM175 403H305Q383 403 416
432T450 529V533Q450 593 415 620T303 647H175V403Z" />
<glyph unicode="C" glyph-name="C" horiz-adv-x="730" d="M389 -9Q234 -9 145 89T55 353V361Q55 520 150 623T391 726Q508 726 589 665T681 492H595Q568 657 392 657Q281 657 213 577T145 362V354Q145 217 210 140T391 62Q480 62 537 106T607 237H688Q670 116
591 54T389 -9Z" />
<glyph unicode="D" glyph-name="D" horiz-adv-x="696" d="M177 71H275Q410 71 480 146T551 356V364Q551 495 484 570T274 645H177V71ZM90 0V715H279Q456 715 548 618T641 364V355Q641 198 549 99T277 0H90Z" />
<glyph unicode="E" glyph-name="E" horiz-adv-x="566" d="M90 0V715H507V644H177V401H443V330H177V71H525V0H90Z" />
<glyph unicode="F" glyph-name="F" horiz-adv-x="546" d="M90 0V715H508V644H177V391H435V320H177V0H90Z" />
<glyph unicode="G" glyph-name="G" horiz-adv-x="767" d="M401 -9Q240 -9 148 91T55 353V361Q55 519 151 622T401 726Q516 726 596 670T692 499H605Q577 657 403 657Q282 657 214 577T145 362V354Q145 218 211 140T401 61Q512 61 568 124T626 289H417V361H711V308Q711
156 627 74T401 -9Z" />
<glyph unicode="H" glyph-name="H" horiz-adv-x="730" d="M90 0V715H177V391H553V715H640V0H553V318H177V0H90Z" />
<glyph unicode="I" glyph-name="I" horiz-adv-x="277" d="M95 0V715H182V0H95Z" />
<glyph unicode="J" glyph-name="J" horiz-adv-x="420" d="M138 -9Q74 -9 38 10V82Q85 62 133 62Q249 62 249 198V715H336V194Q336 92 281 42T138 -9Z" />
<glyph unicode="K" glyph-name="K" horiz-adv-x="616" d="M90 0V715H177V371L488 716H585L267 368L601 0H496L177 349V0H90Z" />
<glyph unicode="L" glyph-name="L" horiz-adv-x="535" d="M90 0V715H177V71H504V0H90Z" />
<glyph unicode="M" glyph-name="M" horiz-adv-x="856" d="M90 0V715H211L432 158L646 715H766V0H679V602L442 0H415L170 602V0H90Z" />
<glyph unicode="N" glyph-name="N" horiz-adv-x="724" d="M90 0V715H203L551 124V715H634V0H534L173 613V0H90Z" />
<glyph unicode="O" glyph-name="O" horiz-adv-x="811" d="M409 63Q527 63 596 144T666 356V364Q666 489 597 571T407 654Q285 654 215 573T145 362V354Q145 226 220 145T409 63ZM409 -9Q253 -9 154 95T55 353V361Q55 516 153 620T407 724T659 621T756 363V355Q756
201 659 96T409 -9Z" />
<glyph unicode="P" glyph-name="P" horiz-adv-x="581" d="M90 0V715H293Q404 715 473 664T543 506V502Q543 394 474 343T293 291H177V0H90ZM177 360H299Q375 360 415 396T456 502V506Q456 645 299 645H177V360Z" />
<glyph unicode="Q" glyph-name="Q" horiz-adv-x="811" d="M659 -89L559 23Q492 -9 409 -9Q253 -9 154 95T55 353V361Q55 516 153 620T407 724T659 621T756 363V355Q756 265 721 189T622 62L712 -38L659 -89ZM409 63Q464 63 507 81L427 171L480 222L571 119Q666
200 666 356V364Q666 489 597 571T407 654Q285 654 215 573T145 362V354Q145 226 220 145T409 63Z" />
<glyph unicode="R" glyph-name="R" horiz-adv-x="628" d="M90 0V715H305Q416 715 485 666T555 516V512Q555 429 507 381T378 317L597 0H500L287 311H177V0H90ZM177 380H311Q468 380 468 512V516Q468 586 428 615T311 645H177V380Z" />
<glyph unicode="S" glyph-name="S" horiz-adv-x="627" d="M321 -9Q188 -9 124 53T48 218H132Q137 183 146 157T176 108T232 73T321 61Q391 61 437 98T484 196Q484 258 448 287T311 333Q190 351 131 395T72 530Q72 613 137 668T302 724Q410 724 474 673T548 527H470Q457
594 417 624T302 654Q231 654 192 622T153 538Q153 482 187 454T325 410Q451 390 509 345T568 202Q568 112 498 52T321 -9Z" />
<glyph unicode="T" glyph-name="T" horiz-adv-x="561" d="M237 0V644H29V715H532V644H324V0H237Z" />
<glyph unicode="U" glyph-name="U" horiz-adv-x="696" d="M341 -9Q218 -9 151 61T84 261V715H171V271Q171 160 212 112T343 63Q435 63 480 111T525 284V715H612V272Q612 138 544 65T341 -9Z" />
<glyph unicode="V" glyph-name="V" horiz-adv-x="654" d="M273 0L30 715H116L329 84L542 715H624L377 0H273Z" />
<glyph unicode="W" glyph-name="W" horiz-adv-x="928" d="M220 0L34 715H123L268 138L436 715H498L666 136L813 715H894L708 0H628L466 565L299 0H220Z" />
<glyph unicode="X" glyph-name="X" horiz-adv-x="657" d="M45 0L281 367L61 715H157L335 434L512 715H601L379 367L612 0H514L323 301L132 0H45Z" />
<glyph unicode="Y" glyph-name="Y" horiz-adv-x="598" d="M262 0V312L23 715H121L308 383L488 715H575L349 311V0H262Z" />
<glyph unicode="Z" glyph-name="Z" horiz-adv-x="595" d="M28 0V14L433 644H64V715H553V702L159 74H547V0H28Z" />
<glyph unicode="[" glyph-name="bracketleft" horiz-adv-x="356" d="M88 -148V776H312V710H171V-82H312V-148H88Z" />
<glyph unicode="\" glyph-name="backslash" horiz-adv-x="403" d="M321 -148L30 776H106L397 -148H321Z" />
<glyph unicode="]" glyph-name="bracketright" horiz-adv-x="356" d="M44 -148V-82H185V710H44V776H268V-148H44Z" />
<glyph unicode="^" glyph-name="asciicircum" horiz-adv-x="507" d="M44 408L211 715H296L463 408H379L252 644L126 408H44Z" />
<glyph unicode="_" glyph-name="underscore" horiz-adv-x="394" d="M-1 -158V-92H395V-158H-1Z" />
<glyph unicode="`" glyph-name="grave" horiz-adv-x="400" d="M177 613L73 760H177L239 613H177Z" />
<glyph unicode="a" glyph-name="a" horiz-adv-x="540" d="M215 -9Q138 -9 90 29T41 145Q41 229 115 268T303 307H378V345Q378 408 352 435T266 463Q158 463 146 369H63Q71 453 129 492T270 532Q461 532 461 345V0H378V66Q318 -9 215 -9ZM223 57Q291 57 334 90T378
183V248H306Q124 248 124 145Q124 57 223 57Z" />
<glyph unicode="b" glyph-name="b" horiz-adv-x="627" d="M344 -9Q283 -9 237 17T167 86V0H84V773H167V435Q191 475 240 503T344 532Q449 532 515 461T582 269V261Q582 140 517 66T344 -9ZM336 60Q414 60 455 111T496 257V265Q496 360 451 411T335 463Q259 463
212 413T164 265V257Q164 160 210 110T336 60Z" />
<glyph unicode="c" glyph-name="c" horiz-adv-x="570" d="M301 -9Q190 -9 118 63T45 256V264Q45 382 118 457T299 532Q389 532 452 488T526 349H444Q426 463 299 463Q226 463 179 409T131 264V256Q131 162 177 111T302 60Q361 60 403 93T452 188H529Q521 102 458
47T301 -9Z" />
<glyph unicode="d" glyph-name="d" horiz-adv-x="627" d="M281 -9Q176 -9 111 61T45 251V259Q45 379 113 455T289 532Q405 532 460 439V773H543V0H460V90Q436 50 386 21T281 -9ZM290 60Q367 60 415 110T463 258V266Q463 364 420 413T297 463Q219 463 175 411T131
263V255Q131 160 175 110T290 60Z" />
<glyph unicode="e" glyph-name="e" horiz-adv-x="568" d="M298 -9Q186 -9 116 63T45 256V264Q45 382 113 457T290 532Q390 532 457 468T525 272V245H131Q134 155 176 108T299 60Q422 60 438 151H521Q508 74 448 33T298 -9ZM134 312H440Q429 463 290 463Q227 463
186 423T134 312Z" />
<glyph unicode="f" glyph-name="f" horiz-adv-x="346" d="M102 0V453H27V523H102V608Q102 689 141 732T258 776Q290 776 320 766V696Q292 707 261 707Q185 707 185 617V523H313V453H185V0H102Z" />
<glyph unicode="g" glyph-name="g" horiz-adv-x="627" d="M293 -191Q184 -191 126 -147T56 -30H141Q159 -121 292 -121Q372 -121 416 -82T460 40V116Q436 75 387 46T283 17Q180 17 113 87T45 265V272Q45 381 114 456T289 532Q405 532 460 439V523H543V35Q542 -76
474 -133T293 -191ZM292 86Q367 86 415 135T463 271V278Q463 365 419 414T297 463T176 412T131 276V268Q131 185 177 136T292 86Z" />
<glyph unicode="h" glyph-name="h" horiz-adv-x="598" d="M84 0V773H167V440Q186 480 230 506T335 532Q421 532 470 481T519 321V0H436V327Q436 396 406 428T313 460Q252 460 210 422T167 317V0H84Z" />
<glyph unicode="i" glyph-name="i" horiz-adv-x="255" d="M86 0V523H169V0H86ZM148 632T126 632T88 648T71 687T87 726T126 742T164 726T181 687T165 648Z" />
<glyph unicode="j" glyph-name="j" horiz-adv-x="255" d="M9 -191V-121Q51 -117 68 -97T86 -40V523H169V-33Q169 -110 132 -149T9 -191ZM148 632T126 632T88 648T71 687T87 726T126 742T164 726T181 687T165 648Z" />
<glyph unicode="k" glyph-name="k" horiz-adv-x="516" d="M84 0V773H167V282L384 523H481L257 280L500 0H399L167 271V0H84Z" />
<glyph unicode="l" glyph-name="l" horiz-adv-x="256" d="M86 0V773H170V0H86Z" />
<glyph unicode="m" glyph-name="m" horiz-adv-x="910" d="M84 0V523H167V443Q186 482 227 507T323 532Q438 532 476 434Q501 482 551 507T655 532Q732 532 781 482T831 324V0H748V330Q748 460 637 460Q581 460 540 423T499 320V0H416V330Q416 460 305 460Q249
460 208 423T167 320V0H84Z" />
<glyph unicode="n" glyph-name="n" horiz-adv-x="598" d="M84 0V523H167V440Q186 480 230 506T335 532Q421 532 470 481T519 321V0H436V327Q436 396 406 428T313 460Q252 460 210 422T167 317V0H84Z" />
<glyph unicode="o" glyph-name="o" horiz-adv-x="604" d="M302 60Q380 60 426 114T473 257V264Q473 355 427 409T302 463Q223 463 177 409T131 265V257Q131 167 177 114T302 60ZM301 -9Q190 -9 118 66T45 257V265Q45 382 117 457T302 532T486 458T559 266V258Q559
140 486 66T301 -9Z" />
<glyph unicode="p" glyph-name="p" horiz-adv-x="627" d="M84 -182V523H167V435Q191 475 240 503T344 532Q449 532 515 461T582 269V261Q582 140 517 66T344 -9Q283 -9 237 17T167 86V-182H84ZM336 60Q414 60 455 111T496 257V265Q496 360 451 411T335 463Q259
463 212 413T164 265V257Q164 160 210 110T336 60Z" />
<glyph unicode="q" glyph-name="q" horiz-adv-x="627" d="M460 -182V90Q436 50 386 21T281 -9Q176 -9 111 61T45 251V259Q45 379 113 455T289 532Q405 532 460 439V523H543V-182H460ZM290 60Q367 60 415 110T463 258V266Q463 364 420 413T297 463Q219 463 175
411T131 263V255Q131 160 175 110T290 60Z" />
<glyph unicode="r" glyph-name="r" horiz-adv-x="376" d="M84 0V523H167V429Q194 478 233 504T339 532V454Q253 450 210 414T167 287V0H84Z" />
<glyph unicode="s" glyph-name="s" horiz-adv-x="480" d="M246 -9Q152 -9 99 36T41 161H122Q132 60 245 60Q359 60 359 143Q359 182 331 200T237 231Q135 250 95 283T55 385T109 492T232 532Q402 532 421 381H341Q332 424 306 443T231 463Q186 463 159 443T132
388Q132 352 157 335T254 305Q301 296 329 288T385 262T425 218T438 150Q438 77 389 34T246 -9Z" />
<glyph unicode="t" glyph-name="t" horiz-adv-x="355" d="M243 -7Q174 -7 138 30T102 131V453H27V523H102V642H185V523H307V453H185V139Q185 63 250 63Q286 63 314 74V4Q283 -7 243 -7Z" />
<glyph unicode="u" glyph-name="u" horiz-adv-x="594" d="M261 -9Q178 -9 129 40T79 192V523H162V196Q162 127 191 95T283 63Q342 63 384 101T427 206V523H510V0H427V83Q408 43 365 17T261 -9Z" />
<glyph unicode="v" glyph-name="v" horiz-adv-x="534" d="M215 0L25 523H115L270 84L423 523H509L321 0H215Z" />
<glyph unicode="w" glyph-name="w" horiz-adv-x="794" d="M189 0L28 523H118L240 102L367 523H439L558 102L681 523H766L603 0H511L402 392L280 0H189Z" />
<glyph unicode="x" glyph-name="x" horiz-adv-x="528" d="M28 0L215 269L40 523H137L265 333L392 523H482L309 275L500 0H402L261 211L117 0H28Z" />
<glyph unicode="y" glyph-name="y" horiz-adv-x="529" d="M131 -182L230 54L25 523H114L274 148L419 523H504L215 -182H131Z" />
<glyph unicode="z" glyph-name="z" horiz-adv-x="483" d="M21 0V12L330 453H51V523H458V508L156 73H454V0H21Z" />
<glyph unicode="{" glyph-name="braceleft" horiz-adv-x="381" d="M337 -147Q222 -147 171 -98T139 61L158 165Q167 215 139 250T40 285V347Q111 347 139 382T158 467L139 571Q119 681 170 730T337 779V716Q261 715 233 684T218 569L237 454Q246 400 219 365T139
316Q192 303 219 268T237 178L218 63Q205 -20 233 -51T337 -84V-147Z" />
<glyph unicode="|" glyph-name="bar" horiz-adv-x="253" d="M93 -148V776H160V-148H93Z" />
<glyph unicode="}" glyph-name="braceright" horiz-adv-x="381" d="M44 -147V-84Q120 -83 148 -52T163 63L144 178Q135 232 162 267T242 316Q189 329 162 364T144 454L163 569Q176 652 148 683T44 716V779Q159 779 210 730T242 571L223 467Q214 417 242 382T341
347V285Q270 285 242 250T223 165L242 61Q262 -49 211 -98T44 -147Z" />
<glyph unicode="~" glyph-name="asciitilde" horiz-adv-x="445" d="M44 223Q49 285 79 318T150 351Q187 351 232 326T290 300Q307 300 320 313T335 353H401Q397 290 367 258T298 225T213 250T156 276Q139 276 127 262T110 223H44Z" />
</font>
</defs>
</svg>
